<svg width="80" height="38" viewBox="0 0 80 38" fill="none" xmlns="http://www.w3.org/2000/svg">
<path d="M19.6553 24.0361V16.5898H36.7451V31.8486C33.4736 34.0785 30.5765 35.6003 28.0537 36.4141C25.5472 37.2116 22.5687 37.6104 19.1182 37.6104C14.8701 37.6104 11.4033 36.8861 8.71777 35.4375C6.0485 33.9889 3.97331 31.8324 2.49219 28.9678C1.02734 26.1032 0.294922 22.8154 0.294922 19.1045C0.294922 15.1982 1.10059 11.8047 2.71191 8.92383C4.32324 6.02669 6.68327 3.82943 9.79199 2.33203C12.2171 1.17643 15.4805 0.598633 19.582 0.598633C23.5371 0.598633 26.4912 0.956706 28.4443 1.67285C30.4137 2.389 32.0413 3.50391 33.3271 5.01758C34.6292 6.51497 35.6058 8.41927 36.2568 10.7305L25.5879 12.6348C25.1484 11.2839 24.3997 10.2503 23.3418 9.53418C22.3001 8.81803 20.9655 8.45996 19.3379 8.45996C16.9128 8.45996 14.9759 9.30632 13.5273 10.999C12.0951 12.6755 11.3789 15.3366 11.3789 18.9824C11.3789 22.8561 12.1032 25.623 13.5518 27.2832C15.0166 28.9434 17.0511 29.7734 19.6553 29.7734C20.8923 29.7734 22.0723 29.5944 23.1953 29.2363C24.3184 28.8783 25.6042 28.2679 27.0527 27.4053V24.0361H19.6553Z" fill="white"/>
<path d="M41.9209 19.1289C41.9209 13.2858 43.5485 8.73665 46.8037 5.48145C50.0589 2.22624 54.5918 0.598633 60.4023 0.598633C66.3594 0.598633 70.9492 2.20182 74.1719 5.4082C77.3945 8.59831 79.0059 13.0742 79.0059 18.8359C79.0059 23.0189 78.2979 26.4531 76.8818 29.1387C75.4821 31.8079 73.4476 33.8913 70.7783 35.3887C68.1253 36.8698 64.8132 37.6104 60.8418 37.6104C56.8053 37.6104 53.4606 36.9674 50.8076 35.6816C48.1709 34.3958 46.0306 32.3613 44.3867 29.5781C42.7428 26.7949 41.9209 23.3118 41.9209 19.1289ZM52.9805 19.1777C52.9805 22.791 53.6478 25.387 54.9824 26.9658C56.3333 28.5446 58.1644 29.334 60.4756 29.334C62.8519 29.334 64.6911 28.5609 65.9932 27.0146C67.2952 25.4684 67.9463 22.6934 67.9463 18.6895C67.9463 15.3203 67.2627 12.8626 65.8955 11.3164C64.5446 9.75391 62.7054 8.97266 60.3779 8.97266C58.1481 8.97266 56.3577 9.76204 55.0068 11.3408C53.6559 12.9196 52.9805 15.5319 52.9805 19.1777Z" fill="white"/>
</svg>
