<svg width="50" height="50" viewBox="0 0 50 50" fill="none" xmlns="http://www.w3.org/2000/svg">
<path d="M32.5 24.9998C32.5 26.9889 31.7098 28.8966 30.3033 30.3031C28.8968 31.7096 26.9891 32.4998 25 32.4998C23.0109 32.4998 21.1032 31.7096 19.6967 30.3031C18.2902 28.8966 17.5 26.9889 17.5 24.9998C17.5 24.5723 17.545 24.1548 17.6225 23.7498H15V33.7423C15 34.4373 15.5625 34.9998 16.2575 34.9998H33.745C34.0781 34.9992 34.3973 34.8664 34.6326 34.6306C34.8679 34.3949 35 34.0754 35 33.7423V23.7498H32.3775C32.455 24.1548 32.5 24.5723 32.5 24.9998ZM25 29.9998C25.6568 29.9997 26.3071 29.8701 26.9138 29.6186C27.5205 29.3672 28.0718 28.9986 28.5361 28.5341C29.0003 28.0696 29.3686 27.5181 29.6198 26.9113C29.871 26.3045 30.0002 25.6541 30 24.9973C29.9998 24.3405 29.8703 23.6902 29.6188 23.0835C29.3673 22.4768 28.9988 21.9256 28.5343 21.4613C28.0698 20.997 27.5183 20.6287 26.9115 20.3775C26.3047 20.1264 25.6543 19.9972 24.9975 19.9973C23.6711 19.9976 22.3991 20.5249 21.4615 21.463C20.5238 22.4012 19.9972 23.6734 19.9975 24.9998C19.9978 26.3262 20.5251 27.5982 21.4632 28.5359C22.4014 29.4735 23.6736 30.0001 25 29.9998ZM31 19.7498H33.9975C34.1966 19.7498 34.3877 19.6709 34.5287 19.5303C34.6698 19.3897 34.7493 19.199 34.75 18.9998V16.0023C34.75 15.8027 34.6707 15.6113 34.5296 15.4702C34.3885 15.3291 34.1971 15.2498 33.9975 15.2498H31C30.8004 15.2498 30.609 15.3291 30.4679 15.4702C30.3268 15.6113 30.2475 15.8027 30.2475 16.0023V18.9998C30.25 19.4123 30.5875 19.7498 31 19.7498ZM25 0.999817C18.6348 0.999817 12.5303 3.52838 8.02944 8.02925C3.52856 12.5301 1 18.6346 1 24.9998C1 31.365 3.52856 37.4695 8.02944 41.9704C12.5303 46.4712 18.6348 48.9998 25 48.9998C28.1517 48.9998 31.2726 48.379 34.1844 47.1729C37.0962 45.9668 39.742 44.199 41.9706 41.9704C44.1992 39.7418 45.967 37.096 47.1731 34.1842C48.3792 31.2724 49 28.1515 49 24.9998C49 21.8481 48.3792 18.7272 47.1731 15.8154C45.967 12.9036 44.1992 10.2579 41.9706 8.02925C39.742 5.80065 37.0962 4.03282 34.1844 2.82671C31.2726 1.6206 28.1517 0.999817 25 0.999817ZM37.5 34.7223C37.5 36.2498 36.25 37.4998 34.7225 37.4998H15.2775C13.75 37.4998 12.5 36.2498 12.5 34.7223V15.2773C12.5 13.7498 13.75 12.4998 15.2775 12.4998H34.7225C36.25 12.4998 37.5 13.7498 37.5 15.2773V34.7223Z" fill="white"/>
</svg>
